<svg width="21" height="20" viewBox="0 0 21 20" fill="none" xmlns="http://www.w3.org/2000/svg">
<path d="M12.6735 9.14096L9.03104 5.49825C9.20938 5.40422 9.40056 5.33242 9.60459 5.28284C9.80875 5.23311 10.0283 5.20825 10.2633 5.20825C11.0186 5.20825 11.6562 5.4695 12.176 5.992C12.6958 6.51436 12.9556 7.15589 12.9556 7.91658C12.9556 8.13561 12.9294 8.35381 12.8771 8.57117C12.8247 8.78867 12.7569 8.9786 12.6735 9.14096ZM5.26646 14.4101C5.99091 13.8739 6.7666 13.4562 7.59354 13.157C8.42035 12.8578 9.30493 12.7083 10.2473 12.7083C10.7003 12.7083 11.1189 12.7534 11.5029 12.8437C11.8871 12.9339 12.2282 13.032 12.5263 13.1378L9.98771 10.5993C9.32952 10.5319 8.77584 10.275 8.32667 9.82846C7.87736 9.38179 7.62174 8.82943 7.55979 8.17138L5.12875 5.74033C4.65222 6.30978 4.27507 6.95159 3.99729 7.66575C3.71952 8.37992 3.58063 9.15797 3.58063 9.99992C3.58063 10.8728 3.73077 11.6784 4.03104 12.4166C4.33118 13.1548 4.74299 13.8193 5.26646 14.4101ZM15.385 14.2274C15.8401 13.658 16.2088 13.0215 16.4908 12.318C16.7729 11.6146 16.914 10.8419 16.914 9.99992C16.914 8.1527 16.2647 6.57978 14.966 5.28117C13.6674 3.98256 12.0945 3.33325 10.2473 3.33325C9.43215 3.33325 8.66743 3.46895 7.95313 3.74033C7.23896 4.01172 6.59452 4.38568 6.01979 4.86221L15.385 14.2274ZM10.2473 17.9166C9.15646 17.9166 8.12952 17.7098 7.16646 17.2964C6.20327 16.8829 5.3632 16.3178 4.64625 15.601C3.92945 14.884 3.36431 14.0439 2.95084 13.0808C2.53736 12.1177 2.33063 11.0908 2.33063 9.99992C2.33063 8.90061 2.53736 7.87152 2.95084 6.91263C3.36431 5.95374 3.92945 5.11582 4.64625 4.39888C5.3632 3.68207 6.20327 3.11693 7.16646 2.70346C8.12952 2.28999 9.15646 2.08325 10.2473 2.08325C11.3466 2.08325 12.3757 2.28999 13.3346 2.70346C14.2935 3.11693 15.1314 3.68207 15.8483 4.39888C16.5651 5.11582 17.1303 5.95374 17.5438 6.91263C17.9572 7.87152 18.164 8.90061 18.164 9.99992C18.164 11.0908 17.9572 12.1177 17.5438 13.0808C17.1303 14.0439 16.5651 14.884 15.8483 15.601C15.1314 16.3178 14.2935 16.8829 13.3346 17.2964C12.3757 17.7098 11.3466 17.9166 10.2473 17.9166ZM10.2473 16.6666C11.0048 16.6666 11.7313 16.5429 12.4269 16.2955C13.1223 16.0482 13.7462 15.7125 14.2985 15.2885C13.7569 14.8696 13.1303 14.5432 12.4188 14.3093C11.7072 14.0753 10.9834 13.9583 10.2473 13.9583C9.51118 13.9583 8.79403 14.0712 8.09584 14.2972C7.39764 14.5232 6.76438 14.8536 6.19604 15.2885C6.7484 15.7125 7.37229 16.0482 8.06771 16.2955C8.76327 16.5429 9.48979 16.6666 10.2473 16.6666Z" fill="#F16365"/>
</svg>
