<svg width="24" height="24" viewBox="0 0 24 24" fill="none" xmlns="http://www.w3.org/2000/svg">
<path d="M8.625 12.75C10.4858 12.75 12 11.2358 12 9.375C12 7.51425 10.4858 6 8.625 6C6.76425 6 5.25 7.51425 5.25 9.375C5.25 11.2358 6.76425 12.75 8.625 12.75ZM8.625 6.75C10.0725 6.75 11.25 7.9275 11.25 9.375C11.25 10.8225 10.0725 12 8.625 12C7.1775 12 6 10.8225 6 9.375C6 7.9275 7.1775 6.75 8.625 6.75ZM14.25 19.875V20.625C14.25 20.832 14.082 21 13.875 21C13.668 21 13.5 20.832 13.5 20.625V19.875C13.5 17.187 11.313 15 8.625 15C5.937 15 3.75 17.187 3.75 19.875V20.625C3.75 20.832 3.582 21 3.375 21C3.168 21 3 20.832 3 20.625V19.875C3 16.773 5.523 14.25 8.625 14.25C11.727 14.25 14.25 16.773 14.25 19.875ZM21 16.3973V16.875C21 17.082 20.832 17.25 20.625 17.25C20.418 17.25 20.25 17.082 20.25 16.875V16.3973C20.25 13.9725 18.2775 12 15.8527 12C14.835 12 13.989 12.2303 13.3395 12.6825C13.1685 12.801 12.9353 12.7598 12.8175 12.5895C12.6997 12.4193 12.7402 12.186 12.9105 12.0675C13.6882 11.5245 14.6782 11.25 15.8527 11.25C18.6907 11.25 21 13.5593 21 16.3973ZM16.125 9.75C17.9858 9.75 19.5 8.23575 19.5 6.375C19.5 4.51425 17.9858 3 16.125 3C14.2642 3 12.75 4.51425 12.75 6.375C12.75 8.23575 14.2642 9.75 16.125 9.75ZM16.125 3.75C17.5725 3.75 18.75 4.9275 18.75 6.375C18.75 7.8225 17.5725 9 16.125 9C14.6775 9 13.5 7.8225 13.5 6.375C13.5 4.9275 14.6775 3.75 16.125 3.75Z" fill="#FDFDFD"/>
</svg>
