<svg width="24" height="24" viewBox="0 0 24 24" fill="none" xmlns="http://www.w3.org/2000/svg">
<g id="category_24dp_FILL0_wght300_GRAD0_opsz24 1">
<path id="Vector" d="M7.19239 10.615L12.0001 2.73047L16.8079 10.615H7.19239ZM17.5001 21.615C16.3526 21.615 15.3799 21.216 14.5819 20.418C13.7839 19.62 13.3849 18.6472 13.3849 17.4997C13.3849 16.3522 13.7839 15.3795 14.5819 14.5815C15.3799 13.7835 16.3526 13.3845 17.5001 13.3845C18.6476 13.3845 19.6204 13.7835 20.4184 14.5815C21.2164 15.3795 21.6154 16.3522 21.6154 17.4997C21.6154 18.6472 21.2164 19.62 20.4184 20.418C19.6204 21.216 18.6476 21.615 17.5001 21.615ZM3.38489 21.115V13.8845H10.6154V21.115H3.38489ZM17.4999 20.1152C18.2321 20.1152 18.8511 19.8624 19.3569 19.3567C19.8627 18.8511 20.1156 18.2321 20.1156 17.5C20.1156 16.7678 19.8628 16.1488 19.3571 15.643C18.8515 15.1371 18.2326 14.8842 17.5004 14.8842C16.7682 14.8842 16.1492 15.1371 15.6434 15.6427C15.1376 16.1484 14.8846 16.7673 14.8846 17.4995C14.8846 18.2316 15.1375 18.8506 15.6431 19.3565C16.1488 19.8623 16.7677 20.1152 17.4999 20.1152ZM4.88464 19.6152H9.11564V15.3842H4.88464V19.6152ZM9.83864 9.11522H14.1616L12.0001 5.63822L9.83864 9.11522Z" fill="#1D242D"/>
</g>
</svg>
