<svg width="22" height="20" viewBox="0 0 22 20" fill="none" xmlns="http://www.w3.org/2000/svg">
<path d="M21.125 18.7224H19.4998V15.1859C19.4998 15.1367 19.4901 15.0879 19.4713 15.0424C19.4524 14.9969 19.4248 14.9555 19.39 14.9207C19.3552 14.8859 19.3138 14.8582 19.2683 14.8394C19.2228 14.8206 19.174 14.8109 19.1248 14.8109H16.6865C16.6372 14.8109 16.5885 14.8206 16.543 14.8394C16.4975 14.8582 16.4561 14.8859 16.4213 14.9207C16.3864 14.9555 16.3588 14.9969 16.34 15.0424C16.3212 15.0879 16.3115 15.1367 16.3115 15.1859V18.7224H14.9375V12.9172C14.9375 12.868 14.9278 12.8192 14.909 12.7737C14.8902 12.7282 14.8626 12.6868 14.8277 12.652C14.7929 12.6172 14.7516 12.5896 14.706 12.5707C14.6605 12.5519 14.6118 12.5422 14.5625 12.5422H12.1239C12.0746 12.5422 12.0259 12.5519 11.9804 12.5707C11.9349 12.5896 11.8935 12.6172 11.8587 12.652C11.8238 12.6868 11.7962 12.7282 11.7774 12.7737C11.7586 12.8192 11.7489 12.868 11.7489 12.9172V18.7224H10.3749V10.9192C10.3749 10.8699 10.3652 10.8212 10.3464 10.7757C10.3275 10.7302 10.2999 10.6888 10.2651 10.654C10.2302 10.6192 10.1889 10.5915 10.1434 10.5727C10.0979 10.5539 10.0491 10.5442 9.99988 10.5442H7.56162C7.51238 10.5442 7.46361 10.5539 7.4181 10.5727C7.3726 10.5915 7.33126 10.6192 7.29643 10.654C7.26161 10.6888 7.23398 10.7302 7.21514 10.7757C7.1963 10.8212 7.18661 10.8699 7.18662 10.9192V18.7224H5.81244V7.54272C5.81245 7.49348 5.80276 7.44471 5.78392 7.3992C5.76508 7.3537 5.73746 7.31235 5.70263 7.27753C5.66781 7.24271 5.62646 7.21508 5.58096 7.19624C5.53546 7.1774 5.48669 7.16771 5.43744 7.16772H2.99921C2.94996 7.16771 2.90119 7.1774 2.85568 7.19624C2.81018 7.21508 2.76884 7.24271 2.73401 7.27753C2.69919 7.31235 2.67157 7.3537 2.65272 7.3992C2.63388 7.44471 2.62419 7.49348 2.62421 7.54272V18.7224H0.875C0.775544 18.7224 0.680161 18.7619 0.609835 18.8322C0.539509 18.9026 0.5 18.998 0.5 19.0974C0.5 19.1969 0.539509 19.2923 0.609835 19.3626C0.680161 19.4329 0.775544 19.4724 0.875 19.4724C0.875 19.4724 20.0419 19.4757 21.125 19.4724C21.2232 19.4705 21.3167 19.4302 21.3855 19.36C21.4542 19.2899 21.4927 19.1956 21.4928 19.0974C21.4928 18.9992 21.4542 18.9049 21.3855 18.8348C21.3167 18.7647 21.2232 18.7243 21.125 18.7224ZM3.37421 18.7224V7.91772H5.06244V18.7224H3.37421ZM7.93664 18.7224V11.2942H9.62489V18.7224H7.93664ZM12.4989 18.7224V13.2922H14.1875V18.7224H12.4989ZM17.0615 18.7224V15.5609H18.7498V18.7224H17.0615Z" fill="#FDFDFD"/>
<path d="M16.6866 11.4096C17.9465 11.4081 19.1544 10.907 20.0452 10.016C20.9361 9.1251 21.4372 7.91717 21.4385 6.65725C21.362 1.54651 14.5381 0.108076 12.3782 4.66513C10.8874 7.71003 13.2812 11.4703 16.6866 11.4096ZM16.6866 10.6596C16.0484 10.6611 15.4192 10.5097 14.8516 10.2179C14.2841 9.92619 13.7947 9.50263 13.4246 8.98277C13.0545 8.46292 12.8144 7.86191 12.7245 7.23013C12.6345 6.59835 12.6973 5.95421 12.9076 5.35171L16.5313 6.99856C16.5806 7.01908 16.6332 7.0305 16.6866 7.03225H20.6695C20.5752 8.02376 20.115 8.94461 19.3787 9.61524C18.6423 10.2859 17.6825 10.6582 16.6866 10.6596ZM20.6695 6.28225H17.0616V2.67429C17.9885 2.76274 18.8557 3.17128 19.5141 3.8297C20.1725 4.48812 20.5811 5.35531 20.6695 6.28225ZM16.3116 2.67429V6.07495L13.2182 4.66912C13.5367 4.11346 13.9839 3.64232 14.5221 3.29521C15.0603 2.94811 15.674 2.73518 16.3116 2.67429Z" fill="#FDFDFD"/>
<path d="M2.00002 1.27759H10.5884C10.6866 1.27567 10.7801 1.23532 10.8489 1.1652C10.9176 1.09508 10.9561 1.00078 10.9561 0.902575C10.9561 0.804366 10.9176 0.710076 10.8489 0.639961C10.7801 0.569845 10.6866 0.529499 10.5884 0.527588H2.00002C1.90186 0.529551 1.80839 0.569923 1.73966 0.640035C1.67094 0.710147 1.63245 0.804411 1.63245 0.902588C1.63245 1.00076 1.67094 1.09503 1.73966 1.16514C1.80839 1.23525 1.90186 1.27562 2.00002 1.27759Z" fill="#FDFDFD"/>
<path d="M2.00002 2.98889H10.5884C10.6866 2.98697 10.7801 2.94662 10.8489 2.8765C10.9176 2.80638 10.9561 2.71209 10.9561 2.61388C10.9561 2.51567 10.9176 2.42138 10.8489 2.35126C10.7801 2.28115 10.6866 2.2408 10.5884 2.23889H2.00002C1.90186 2.24085 1.80839 2.28123 1.73966 2.35134C1.67094 2.42145 1.63245 2.51571 1.63245 2.61389C1.63245 2.71207 1.67094 2.80633 1.73966 2.87644C1.80839 2.94656 1.90186 2.98693 2.00002 2.98889Z" fill="#FDFDFD"/>
<path d="M2.00002 4.70019H10.5884C10.6866 4.69823 10.78 4.65785 10.8488 4.58774C10.9175 4.51762 10.956 4.42336 10.956 4.32518C10.956 4.227 10.9175 4.13274 10.8487 4.06263C10.78 3.99252 10.6865 3.95216 10.5884 3.9502H2.00002C1.90186 3.95216 1.80839 3.99253 1.73966 4.06264C1.67094 4.13275 1.63245 4.22702 1.63245 4.32519C1.63245 4.42337 1.67094 4.51764 1.73966 4.58775C1.80839 4.65786 1.90186 4.69823 2.00002 4.70019Z" fill="#FDFDFD"/>
</svg>
