<svg width="24" height="24" viewBox="0 0 24 24" fill="none" xmlns="http://www.w3.org/2000/svg">
<path d="M20.9997 12.3907C20.7935 17.2185 16.8396 21 12 21C8.97014 21 6.22599 19.512 4.54755 17.0167C4.5228 17.091 4.5003 17.1675 4.5003 17.25V20.625C4.5003 20.832 4.33231 21 4.12532 21C3.91833 21 3.75033 20.832 3.75033 20.625V17.25C3.75033 16.4227 4.42306 15.75 5.25028 15.75H8.62515C8.83214 15.75 9.00014 15.918 9.00014 16.125C9.00014 16.332 8.83214 16.5 8.62515 16.5H5.25028C5.20378 16.5 5.16328 16.518 5.11978 16.5262C6.65347 18.858 9.19363 20.25 12 20.25C16.4369 20.25 20.0607 16.7835 20.2497 12.3593C20.2587 12.1575 20.4245 12 20.6247 12C20.63 12 20.6352 12 20.6405 12C20.8467 12.009 21.0079 12.1838 20.9997 12.3907ZM12 3.75C14.8064 3.75 17.3473 5.142 18.8803 7.47375C18.836 7.482 18.7955 7.5 18.7498 7.5H15.3749C15.1679 7.5 14.9999 7.668 14.9999 7.875C14.9999 8.082 15.1679 8.25 15.3749 8.25H18.7498C19.577 8.25 20.2497 7.57725 20.2497 6.75V3.375C20.2497 3.168 20.0817 3 19.8747 3C19.6677 3 19.4998 3.168 19.4998 3.375V6.75C19.4998 6.8325 19.4773 6.909 19.4525 6.98325C17.7741 4.488 15.0299 3 12 3C7.16046 3 3.2066 6.7815 3.00036 11.6093C2.99136 11.8162 3.1526 11.991 3.3596 12C3.3656 12 3.37085 12 3.37535 12C3.57559 12 3.74133 11.8425 3.75033 11.6407C3.93932 7.2165 7.56319 3.75 12 3.75ZM9.61737 18.3173C10.3778 18.6045 11.1796 18.75 12 18.75C15.7221 18.75 18.7498 15.7215 18.7498 12C18.7498 11.3235 18.65 10.656 18.4528 10.0147C18.3928 9.81675 18.1858 9.705 17.9841 9.7665C17.7861 9.828 17.6751 10.0373 17.7366 10.2353C17.9113 10.8045 18.0006 11.3985 18.0006 12C18.0006 15.3082 15.3089 18 12.0008 18C11.2711 18 10.5586 17.871 9.88361 17.616C9.68786 17.5425 9.47262 17.6407 9.39987 17.8342C9.32638 18.0277 9.42462 18.2445 9.61812 18.318L9.61737 18.3173ZM12 6C12.7298 6 13.4422 6.129 14.1172 6.384C14.3122 6.4575 14.5282 6.35925 14.6009 6.16575C14.6744 5.97225 14.5762 5.7555 14.3827 5.682C13.6222 5.39475 12.8205 5.24925 12 5.24925C8.27792 5.25 5.25028 8.2785 5.25028 12C5.25028 12.6765 5.35002 13.344 5.54727 13.9853C5.59601 14.1465 5.74526 14.25 5.90575 14.25C5.9425 14.25 5.97925 14.2448 6.016 14.2335C6.21399 14.172 6.32499 13.9627 6.26349 13.7647C6.08875 13.1955 5.9995 12.6015 5.9995 12C5.9995 8.69175 8.69115 6 11.9993 6H12ZM11.3686 9.75H12.6315C13.0635 9.75 13.5 9.98175 13.5 10.5C13.5 10.707 13.668 10.875 13.875 10.875C14.082 10.875 14.2499 10.707 14.2499 10.5C14.2499 9.63075 13.5697 9 12.6315 9H12.375V8.625C12.375 8.418 12.207 8.25 12 8.25C11.793 8.25 11.625 8.418 11.625 8.625V9H11.3686C10.4761 9 9.75011 9.726 9.75011 10.6185C9.75011 11.4128 10.3193 12.084 11.0963 12.2137L12.774 12.525C13.1947 12.5955 13.5 12.9555 13.5 13.3815C13.5 13.8608 13.11 14.25 12.6315 14.25H11.3686C10.9366 14.25 10.5001 14.0182 10.5001 13.5C10.5001 13.293 10.3321 13.125 10.1251 13.125C9.9181 13.125 9.75011 13.293 9.75011 13.5C9.75011 14.3693 10.4303 15 11.3686 15H11.625V15.375C11.625 15.582 11.793 15.75 12 15.75C12.207 15.75 12.375 15.582 12.375 15.375V15H12.6315C13.524 15 14.2499 14.274 14.2499 13.3815C14.2499 12.5872 13.6807 11.916 12.9037 11.7863L11.2261 11.475C10.8053 11.4045 10.5001 11.0445 10.5001 10.6185C10.5001 10.1392 10.8901 9.75 11.3686 9.75Z" fill="#FDFDFD"/>
</svg>
