<svg width="24" height="24" viewBox="0 0 24 24" fill="none" xmlns="http://www.w3.org/2000/svg">
<path d="M16.5655 20.0963L19.0962 17.5655V19.6345H19.8655V16.25H16.4808V17.0193H18.55L16.0193 19.55L16.5655 20.0963ZM5.6155 20C5.168 20 4.78683 19.8427 4.472 19.528C4.15733 19.2132 4 18.832 4 18.3845V5.6155C4 5.168 4.15733 4.78683 4.472 4.472C4.78683 4.15733 5.168 4 5.6155 4H18.3845C18.832 4 19.2132 4.15733 19.528 4.472C19.8427 4.78683 20 5.168 20 5.6155V11.5655C19.8243 11.5052 19.6564 11.4561 19.4962 11.4183C19.3359 11.3804 19.1705 11.3429 19 11.3058V5.6155C19 5.4615 18.9359 5.32042 18.8077 5.19225C18.6796 5.06408 18.5385 5 18.3845 5H5.6155C5.4615 5 5.32042 5.06408 5.19225 5.19225C5.06408 5.32042 5 5.4615 5 5.6155V18.3845C5 18.5385 5.06408 18.6796 5.19225 18.8077C5.32042 18.9359 5.4615 19 5.6155 19H11.2808C11.3051 19.1872 11.3362 19.3609 11.374 19.5212C11.4118 19.6814 11.4609 19.841 11.5213 20H5.6155ZM5 18V19V5V11.3058V11.2308V18ZM7.5 16.2692H11.4595C11.4968 16.0988 11.5472 15.9333 11.6105 15.773C11.674 15.6128 11.7403 15.4449 11.8095 15.2692H7.5V16.2692ZM7.5 12.5H14.0807C14.4089 12.2692 14.7323 12.0737 15.051 11.9135C15.3695 11.7532 15.7115 11.6275 16.077 11.5365V11.5H7.5V12.5ZM7.5 8.73075H16.5V7.73075H7.5V8.73075ZM18 22.1155C16.8858 22.1155 15.9407 21.7273 15.1645 20.951C14.3882 20.1747 14 19.2295 14 18.1155C14 17.0013 14.3882 16.0561 15.1645 15.2797C15.9407 14.5036 16.8858 14.1155 18 14.1155C19.1142 14.1155 20.0593 14.5036 20.8355 15.2797C21.6118 16.0561 22 17.0013 22 18.1155C22 19.2295 21.6118 20.1747 20.8355 20.951C20.0593 21.7273 19.1142 22.1155 18 22.1155Z" fill="#F8FAFC"/>
</svg>
