<svg width="24" height="24" viewBox="0 0 24 24" fill="none" xmlns="http://www.w3.org/2000/svg">
<path d="M18.5299 19.569C18.3626 19.569 18.2269 19.7043 18.2269 19.8761V20.0025C18.2269 20.4997 17.8151 20.916 17.3134 20.916H5.32575C4.824 20.916 4.41262 20.5001 4.41262 20.0025V5.07633C4.41262 4.57008 4.824 4.1632 5.32575 4.1632H7.97025V4.4617C7.97025 4.96795 8.37712 5.38383 8.88337 5.38383H13.7565C14.2582 5.38383 14.6696 4.96795 14.6696 4.4617V4.1632H17.3141C17.8159 4.1632 18.2276 4.57008 18.2276 5.07633V8.05983C18.2276 8.23158 18.363 8.36733 18.5306 8.36733C18.7024 8.36733 18.8377 8.23158 18.8377 8.05983V5.07633C18.8377 4.23558 18.1552 3.55758 17.3141 3.55758H14.6696V3.25008C14.6696 2.74383 14.2582 2.33695 13.7565 2.33695H12.495C12.3592 1.8127 11.8849 1.42383 11.3197 1.42383C10.7546 1.42383 10.2799 1.8127 10.1445 2.33695H8.88337C8.37712 2.33695 7.97025 2.74383 7.97025 3.25008V3.55758H5.32575C4.485 3.55758 3.80212 4.23558 3.80212 5.07633V20.0025C3.80212 20.8432 4.48462 21.5216 5.32575 21.5216H17.3137C18.1545 21.5216 18.8374 20.8432 18.8374 20.0025V19.8761C18.837 19.7043 18.7016 19.569 18.5299 19.569ZM11.3197 2.02945C11.6542 2.02945 11.9299 2.30058 11.9299 2.63508C11.9299 2.97858 11.6542 3.2497 11.3197 3.2497C10.9852 3.2497 10.7096 2.97858 10.7096 2.63508C10.7096 2.30058 10.9852 2.02945 11.3197 2.02945ZM8.57587 3.25008C8.57587 3.07833 8.71612 2.94258 8.88337 2.94258H10.1445C10.2799 3.46683 10.7546 3.85608 11.3197 3.85608C11.8849 3.85608 12.3592 3.4672 12.495 2.94258H13.7561C13.923 2.94258 14.0591 3.07833 14.0591 3.25008V4.4617C14.0591 4.63345 13.9234 4.76883 13.7561 4.76883H8.883C8.71575 4.76883 8.5755 4.63345 8.5755 4.4617L8.57587 3.25008Z" fill="#FDFDFD"/>
<path d="M8.6074 7.30009C8.6074 6.80284 8.19603 6.38696 7.69428 6.38696H6.77665C6.2749 6.38696 5.86353 6.80284 5.86353 7.30009V8.21321C5.86353 8.71946 6.2749 9.12634 6.77665 9.12634H7.69428C8.19603 9.12634 8.6074 8.71946 8.6074 8.21321V7.30009ZM7.99728 8.21321C7.99728 8.38496 7.8619 8.52071 7.69428 8.52071H6.77665C6.6094 8.52071 6.47365 8.38496 6.47365 8.21321V7.30009C6.47365 7.13734 6.60903 7.00196 6.77665 7.00196H7.69428C7.86153 7.00196 7.99728 7.13734 7.99728 7.30009V8.21321Z" fill="#FDFDFD"/>
<path d="M8.6074 11.5675C8.6074 11.0613 8.19603 10.6544 7.69428 10.6544H6.77665C6.2749 10.6544 5.86353 11.0613 5.86353 11.5675V12.4807C5.86353 12.9873 6.2749 13.3942 6.77665 13.3942H7.69428C8.19603 13.3942 8.6074 12.9873 8.6074 12.4807V11.5675ZM7.99728 12.4803C7.99728 12.6524 7.8619 12.7878 7.69428 12.7878H6.77665C6.6094 12.7878 6.47365 12.6524 6.47365 12.4803V11.5672C6.47365 11.4044 6.60903 11.26 6.77665 11.26H7.69428C7.86153 11.26 7.99728 11.4048 7.99728 11.5672V12.4803Z" fill="#FDFDFD"/>
<path d="M7.69428 14.913H6.77665C6.2749 14.913 5.86353 15.3285 5.86353 15.8351V16.7482C5.86353 17.2455 6.2749 17.6613 6.77665 17.6613H7.69428C8.19603 17.6613 8.6074 17.2458 8.6074 16.7482V15.8351C8.6074 15.3285 8.19603 14.913 7.69428 14.913ZM7.99728 16.7478C7.99728 16.9196 7.8619 17.0463 7.69428 17.0463H6.77665C6.6094 17.0463 6.47365 16.9196 6.47365 16.7478V15.8347C6.47365 15.6626 6.60903 15.5272 6.77665 15.5272H7.69428C7.86153 15.5272 7.99728 15.6626 7.99728 15.8347V16.7478Z" fill="#FDFDFD"/>
<path d="M16.7757 7.76136C16.7757 7.58961 16.6358 7.45386 16.4686 7.45386H10.1082C9.94093 7.45386 9.80518 7.58961 9.80518 7.76136C9.80518 7.93311 9.94093 8.05986 10.1082 8.05986H16.4686C16.6358 8.05986 16.7757 7.93311 16.7757 7.76136Z" fill="#FDFDFD"/>
<path d="M10.1082 12.3269H10.1127H13.1232C13.2949 12.3269 13.4307 12.1912 13.4307 12.0194C13.4307 11.8567 13.2949 11.7119 13.1232 11.7119L10.1082 11.7209C9.94093 11.7209 9.80518 11.8563 9.80518 12.019C9.80518 12.1912 9.94093 12.3269 10.1082 12.3269Z" fill="#FDFDFD"/>
<path d="M10.1082 16.594H13.4307C13.5979 16.594 13.7337 16.4587 13.7337 16.2869C13.7337 16.1242 13.5983 15.9884 13.4307 15.9884H10.1082C9.94093 15.9884 9.80518 16.1242 9.80518 16.2869C9.80518 16.4587 9.94093 16.594 10.1082 16.594Z" fill="#FDFDFD"/>
<path d="M22.0331 11.7119H21.1695C21.4001 11.4318 21.54 11.0699 21.54 10.6724C21.54 9.75932 20.7986 9.01794 19.881 9.01794C19.221 9.01794 18.6518 9.40682 18.3851 9.96744C18.1451 9.74132 17.829 9.60594 17.4761 9.60594C16.7258 9.60594 16.1156 10.2206 16.1156 10.9713C16.1156 11.2424 16.197 11.5046 16.3418 11.7127H15.0308C14.859 11.7127 14.7236 11.8574 14.7236 12.0202V13.7287C14.7236 13.9004 14.859 14.0362 15.0308 14.0362H15.18V18.3487C15.18 18.5204 15.3154 18.6558 15.483 18.6558H21.5764C21.7436 18.6558 21.8839 18.5204 21.8839 18.3487V14.0362H22.0328C22.2045 14.0362 22.3399 13.9004 22.3399 13.7287V12.0202C22.3403 11.8567 22.2049 11.7119 22.0331 11.7119ZM21.7301 13.4298H18.837V12.3269H19.881C19.8994 12.3269 19.9129 12.3269 19.9309 12.3269H21.7301V13.4298ZM18.837 10.6724C18.837 10.0938 19.3073 9.62357 19.881 9.62357C20.4596 9.62357 20.9299 10.0938 20.9299 10.6724C20.9299 11.2421 20.4731 11.7033 19.9039 11.7119H18.837V10.9706V10.6724ZM16.7216 10.9709C16.7216 10.5551 17.0606 10.2116 17.4765 10.2116C17.8883 10.2116 18.2273 10.5551 18.2273 10.9709V11.7123H17.4495C17.0471 11.7029 16.7216 11.3684 16.7216 10.9709ZM15.3341 12.3269H17.4495C17.4585 12.3269 17.4679 12.3269 17.4765 12.3269H18.2273V13.4298H15.3341V12.3269ZM15.7901 14.0358H18.2269V18.0498H15.7901V14.0358ZM21.2734 18.0498H18.837V14.0358H21.2734V18.0498Z" fill="#FDFDFD"/>
<path d="M15.5479 13.8368L18.5317 15.9885" stroke="#FDFDFD" stroke-miterlimit="10"/>
<path d="M18.5318 15.9885L15.7902 18.0499" stroke="#FDFDFD" stroke-miterlimit="10"/>
<path d="M18.5317 15.9885L21.2734 14.0359" stroke="#FDFDFD" stroke-miterlimit="10"/>
<path d="M18.5317 15.9885L21.8839 18.0499" stroke="#FDFDFD" stroke-miterlimit="10"/>
<path d="M5.00807 4.00647L4.81982 21.18" stroke="#FDFDFD" stroke-miterlimit="10"/>
<path d="M7.9725 6.82947L6.474 8.21322" stroke="#FDFDFD" stroke-miterlimit="10"/>
<path d="M6.474 11.1581L8.16075 12.8988" stroke="#FDFDFD" stroke-miterlimit="10"/>
<path d="M8.16075 15.0472L6.474 17.0194" stroke="#FDFDFD" stroke-miterlimit="10"/>
</svg>
