<svg width="24" height="24" viewBox="0 0 24 24" fill="none" xmlns="http://www.w3.org/2000/svg">
<g id="export_notes_24dp_FILL0_wght200_GRAD0_opsz24 2">
<mask id="mask0_14550_437" style="mask-type:alpha" maskUnits="userSpaceOnUse" x="0" y="0" width="24" height="24">
<rect id="Bounding box" width="24" height="24" fill="#D9D9D9"/>
</mask>
<g mask="url(#mask0_14550_437)">
<path id="folded_hands" d="M15.2433 15.457V12.7435L14.1568 10.7377C13.8009 10.7801 13.5059 10.9361 13.2718 11.206C13.0374 11.4758 12.9203 11.7902 12.9203 12.1492V17.255L15.0798 20.8465H14.001L11.997 17.5107V12.1492C11.997 11.6301 12.1515 11.1618 12.4605 10.7445C12.7695 10.3271 13.175 10.0483 13.677 9.90798L11.9933 6.74723C11.7113 6.2204 11.5814 5.66406 11.6038 5.07823C11.6263 4.49223 11.8448 3.9919 12.2595 3.57723L13.5443 2.29248L19.872 9.82998L20.8463 20.8465H19.923L18.9605 10.1732L13.477 3.64148L12.9115 4.22623C12.666 4.47806 12.5207 4.77148 12.4755 5.10648C12.4303 5.44148 12.4917 5.76215 12.6595 6.06848L16.1663 12.484V15.457H15.2433ZM7.83075 15.457V12.484L11.3375 6.06848C11.5055 5.76215 11.5669 5.44148 11.5218 5.10648C11.4764 4.77148 11.331 4.47806 11.0855 4.22623L10.5203 3.64148L5.0365 10.1732L4.074 20.8465H3.151L4.125 9.82998L10.453 2.29248L11.7375 3.57723C12.1522 3.9919 12.3708 4.49223 12.3933 5.07823C12.4158 5.66406 12.2859 6.2204 12.0038 6.74723L10.301 9.90798C10.8028 10.0483 11.2115 10.3271 11.527 10.7445C11.8423 11.1618 12 11.6301 12 12.1492V17.5107L9.99625 20.8465H8.91725L11.077 17.255V12.1492C11.077 11.7902 10.9598 11.4758 10.7255 11.206C10.4912 10.9361 10.1962 10.7801 9.8405 10.7377L8.75375 12.7435V15.457H7.83075Z" fill="#FDFDFD"/>
</g>
</g>
</svg>
