<svg width="24" height="24" viewBox="0 0 24 24" fill="none" xmlns="http://www.w3.org/2000/svg">
<path d="M4.42963 13C3.64333 13 3 13.7185 3 14.5995V19.4005C3 20.2815 3.64333 21 4.42963 21H5.57248C6.35878 21 7 20.2815 7 19.4005V14.5995C7 13.7185 6.35878 13 5.57248 13H4.42963ZM4.42963 13.6403H5.57248C6.05216 13.6403 6.42857 14.062 6.42857 14.5995V19.4005C6.42857 19.938 6.05216 20.3621 5.57248 20.3621H4.42963C3.94994 20.3621 3.57143 19.938 3.57143 19.4005V14.5995C3.57143 14.062 3.94994 13.6403 4.42963 13.6403Z" fill="#FDFDFD"/>
<path d="M5.29677 14.852C5.25717 14.8524 5.21806 14.8603 5.18167 14.8752C5.14529 14.89 5.11235 14.9116 5.08477 14.9387C5.05719 14.9657 5.0355 14.9977 5.02096 15.0328C5.00642 15.0679 4.99931 15.1054 5.00005 15.1431V16.5708C5.00005 16.6466 5.03166 16.7193 5.08793 16.7729C5.1442 16.8265 5.22051 16.8566 5.30009 16.8566C5.37966 16.8566 5.45598 16.8265 5.51224 16.7729C5.56851 16.7193 5.60012 16.6466 5.60012 16.5708V15.1431C5.60087 15.1048 5.59355 15.0668 5.5786 15.0313C5.56365 14.9958 5.54137 14.9636 5.51308 14.9364C5.48479 14.9093 5.45107 14.8878 5.41391 14.8733C5.37675 14.8588 5.33692 14.8516 5.29677 14.852ZM11.8798 14L7.06376 14.5736L7.13683 15.141L11.9064 14.5736C11.9132 14.5738 12.1397 14.5761 12.3648 14.6833C12.5932 14.7921 12.7988 14.9516 12.7988 15.4278C12.7988 15.9039 12.5932 16.0635 12.3648 16.1722C12.1363 16.281 11.8998 16.284 11.8998 16.284H10.6996C10.2996 16.284 10.2996 16.8555 10.6996 16.8555H11.8998C11.8998 16.8555 12.2612 16.8595 12.6327 16.6826C13.0042 16.5057 13.3988 16.0944 13.3988 15.4278C13.3988 14.7612 13.0042 14.3499 12.6327 14.1729C12.2612 13.996 11.8998 14 11.8998 14H11.8798ZM6.80026 19.999L13.7 20C14.1 20.0001 14.1 19.4285 13.7 19.4285H7.09919L6.80026 19.999Z" fill="#FDFDFD"/>
<path d="M13 15.2788L13.033 15.8323L19.4061 15.5556C19.4061 15.5556 19.6568 15.5589 19.8989 15.6642C20.1421 15.7699 20.3634 15.925 20.3634 16.3879V18.6101C20.3634 19.0729 20.1421 19.228 19.8989 19.3337C19.6557 19.4395 19.4038 19.4444 19.4038 19.4444H15.5724C15.1464 19.4444 15.1464 20 15.5724 20H19.4038C19.4038 20 19.791 20.0018 20.1866 19.8298C20.5821 19.6579 21 19.2581 21 18.6101V16.3879C21 15.7399 20.5821 15.3401 20.1866 15.1681C19.791 14.9961 19.4002 15 19.4002 15L13 15.2788Z" fill="#FDFDFD"/>
<path d="M19.6749 16.9591C19.5906 16.9606 19.5104 16.9937 19.4517 17.0512C19.393 17.1087 19.3606 17.1859 19.3616 17.2661V17.8733C19.3616 18.0756 19.3013 18.0935 19.2179 18.1332C19.1344 18.1729 19.0412 18.178 19.0412 18.178C18.9565 18.178 18.8753 18.21 18.8155 18.2669C18.7556 18.3239 18.722 18.4011 18.722 18.4816C18.722 18.5621 18.7556 18.6394 18.8155 18.6963C18.8753 18.7532 18.9565 18.7852 19.0412 18.7852C19.0412 18.7852 19.2672 18.7875 19.5029 18.6754C19.7386 18.5634 20 18.278 20 17.8733V17.2661C20.0005 17.2255 19.9924 17.1851 19.9762 17.1475C19.96 17.1099 19.936 17.0758 19.9057 17.0472C19.8754 17.0186 19.8393 16.996 19.7997 16.9809C19.76 16.9658 19.7176 16.9584 19.6749 16.9591ZM14.8621 19.3924C14.7774 19.3963 14.6978 19.432 14.6408 19.4917C14.5839 19.5513 14.5541 19.6301 14.5582 19.7106C14.5622 19.7911 14.5998 19.8668 14.6625 19.921C14.7252 19.9752 14.808 20.0035 14.8927 19.9997C14.9346 19.9997 14.9761 19.9918 15.0148 19.9765C15.0536 19.9613 15.0888 19.9389 15.1184 19.9107C15.148 19.8825 15.1716 19.8491 15.1876 19.8122C15.2036 19.7754 15.2119 19.7359 15.2119 19.696C15.2119 19.6562 15.2036 19.6167 15.1876 19.5799C15.1716 19.543 15.148 19.5096 15.1184 19.4814C15.0888 19.4532 15.0536 19.4308 15.0148 19.4156C14.9761 19.4003 14.9346 19.3924 14.8927 19.3924C14.8825 19.392 14.8723 19.392 14.8621 19.3924ZM7.87254 3C7.80374 3.00008 7.73681 3.0213 7.68172 3.0605L5.12808 4.88213C5.09149 4.90814 5.0612 4.94132 5.03925 4.97943C5.0173 5.01754 5.00421 5.05968 5.00086 5.10301C4.99751 5.14634 5.00398 5.18985 5.01983 5.2306C5.03568 5.27135 5.06054 5.30839 5.09274 5.33922L6.68994 6.85836C6.73165 6.89807 6.78411 6.926 6.8415 6.93905C6.89889 6.9521 6.95896 6.94977 7.01504 6.9323L7.55215 6.76202V11.1962C7.55215 11.1962 7.54974 11.4112 7.66758 11.6354C7.78542 11.8595 8.08544 12.1059 8.51095 12.1059H15.5311C15.9566 12.1059 16.2566 11.8595 16.3745 11.6354C16.4923 11.4112 16.4875 11.1962 16.4875 11.1962V6.75978L17.027 6.9323C17.0831 6.94977 17.1432 6.9521 17.2006 6.93905C17.2579 6.926 17.3104 6.89807 17.3521 6.85836L18.9493 5.33922C18.9815 5.30839 19.0064 5.27135 19.0222 5.2306C19.0381 5.18985 19.0445 5.14634 19.0412 5.10301C19.0378 5.05968 19.0247 5.01753 19.0028 4.97943C18.9809 4.94132 18.9506 4.90814 18.914 4.88213L16.3603 3.0605C16.3052 3.0213 16.2383 3.00008 16.1695 3H7.87254ZM7.97854 3.60721H16.0635L18.2355 5.15997L17.0411 6.29597L16.2708 6.05174C16.2228 6.03664 16.1717 6.03261 16.1217 6.03999C16.0717 6.04736 16.0243 6.06593 15.9834 6.09416C15.9424 6.12239 15.9091 6.15947 15.8862 6.20235C15.8632 6.24523 15.8514 6.29267 15.8515 6.34078V11.1962C15.8515 11.1962 15.8461 11.2849 15.8044 11.3643C15.7627 11.4436 15.7439 11.4987 15.5311 11.4987H8.51095C8.2982 11.4987 8.2794 11.4436 8.23768 11.3643C8.19595 11.2849 8.19056 11.1962 8.19056 11.1962V6.34078C8.1907 6.29267 8.17881 6.24523 8.15589 6.20235C8.13296 6.15947 8.09965 6.12239 8.05869 6.09416C8.01774 6.06593 7.97032 6.04736 7.92034 6.03999C7.87036 6.03261 7.81926 6.03664 7.77124 6.05174L7.00091 6.29597L5.80418 5.15773L7.97854 3.60721Z" fill="#FDFDFD"/>
<path d="M9.3761 1.50037C9.3761 2.9457 10.5551 4.12468 12.0004 4.12468C13.4457 4.12468 14.6247 2.9457 14.6247 1.50037H13.8745C13.8745 2.54036 13.0404 3.37448 12.0004 3.37448C10.9604 3.37448 10.1263 2.54036 10.1263 1.50037H9.3761Z" fill="#FDFDFD"/>
</svg>
