<svg width="24" height="24" viewBox="0 0 24 24" fill="none" xmlns="http://www.w3.org/2000/svg">
<path d="M18.375 6.75C17.3408 6.75 16.5 5.90925 16.5 4.875C16.5 3.84075 17.3408 3 18.375 3C19.4093 3 20.25 3.84075 20.25 4.875C20.25 5.90925 19.4093 6.75 18.375 6.75ZM18.375 3.75C17.7548 3.75 17.25 4.25475 17.25 4.875C17.25 5.49525 17.7548 6 18.375 6C18.9952 6 19.5 5.49525 19.5 4.875C19.5 4.25475 18.9952 3.75 18.375 3.75Z" fill="#F8FAFC"/>
<path d="M20.6249 7.49993C20.5289 7.49993 20.4329 7.46318 20.3594 7.39043L19.2344 6.26543C19.0882 6.11918 19.0882 5.88143 19.2344 5.73518C19.3807 5.58893 19.6184 5.58893 19.7647 5.73518L20.8897 6.86018C21.0359 7.00643 21.0359 7.24418 20.8897 7.39043C20.8169 7.46318 20.7209 7.49993 20.6249 7.49993Z" fill="#F8FAFC"/>
<path d="M13.875 7.5H4.125C3.50475 7.5 3 6.99525 3 6.375V4.125C3 3.50475 3.50475 3 4.125 3H13.875C14.4952 3 15 3.50475 15 4.125V6.375C15 6.99525 14.4952 7.5 13.875 7.5ZM4.125 3.75C3.91875 3.75 3.75 3.91875 3.75 4.125V6.375C3.75 6.58125 3.91875 6.75 4.125 6.75H13.875C14.0813 6.75 14.25 6.58125 14.25 6.375V4.125C14.25 3.91875 14.0813 3.75 13.875 3.75H4.125Z" fill="#F8FAFC"/>
<path d="M5.25 21C4.0095 21 3 19.9905 3 18.75C3 17.5095 4.0095 16.5 5.25 16.5C6.4905 16.5 7.5 17.5095 7.5 18.75C7.5 19.9905 6.4905 21 5.25 21ZM5.25 17.25C4.42275 17.25 3.75 17.9227 3.75 18.75C3.75 19.5773 4.42275 20.25 5.25 20.25C6.07725 20.25 6.75 19.5773 6.75 18.75C6.75 17.9227 6.07725 17.25 5.25 17.25Z" fill="#F8FAFC"/>
<path d="M7.125 12.75H3.375C3.168 12.75 3 12.582 3 12.375C3 12.168 3.168 12 3.375 12H7.125C7.332 12 7.5 12.168 7.5 12.375C7.5 12.582 7.332 12.75 7.125 12.75Z" fill="#F8FAFC"/>
<path d="M7.125 15H3.375C3.168 15 3 14.832 3 14.625C3 14.418 3.168 14.25 3.375 14.25H7.125C7.332 14.25 7.5 14.418 7.5 14.625C7.5 14.832 7.332 15 7.125 15Z" fill="#F8FAFC"/>
<path d="M7.125 10.5H3.375C3.168 10.5 3 10.332 3 10.125C3 9.918 3.168 9.75 3.375 9.75H7.125C7.332 9.75 7.5 9.918 7.5 10.125C7.5 10.332 7.332 10.5 7.125 10.5Z" fill="#F8FAFC"/>
<path d="M19.875 21H10.125C9.50475 21 9 20.4952 9 19.875V10.125C9 9.50475 9.50475 9 10.125 9H19.875C20.4952 9 21 9.50475 21 10.125V19.875C21 20.4952 20.4952 21 19.875 21ZM10.125 9.75C9.91875 9.75 9.75 9.91875 9.75 10.125V19.875C9.75 20.0813 9.91875 20.25 10.125 20.25H19.875C20.0813 20.25 20.25 20.0813 20.25 19.875V10.125C20.25 9.91875 20.0813 9.75 19.875 9.75H10.125Z" fill="#F8FAFC"/>
<path d="M15 14.25C14.3798 14.25 13.875 13.7452 13.875 13.125C13.875 12.5048 14.3798 12 15 12C15.6202 12 16.125 12.5048 16.125 13.125C16.125 13.7452 15.6202 14.25 15 14.25ZM15 12.75C14.7937 12.75 14.625 12.9187 14.625 13.125C14.625 13.3312 14.7937 13.5 15 13.5C15.2062 13.5 15.375 13.3312 15.375 13.125C15.375 12.9187 15.2062 12.75 15 12.75Z" fill="#F8FAFC"/>
<path d="M16.875 17.25C16.668 17.25 16.5 17.082 16.5 16.875V16.5C16.5 16.086 16.164 15.75 15.75 15.75H14.25C13.836 15.75 13.5 16.086 13.5 16.5V16.875C13.5 17.082 13.332 17.25 13.125 17.25C12.918 17.25 12.75 17.082 12.75 16.875V16.5C12.75 15.6727 13.4227 15 14.25 15H15.75C16.5773 15 17.25 15.6727 17.25 16.5V16.875C17.25 17.082 17.082 17.25 16.875 17.25Z" fill="#F8FAFC"/>
</svg>
