<svg width="24" height="24" viewBox="0 0 24 24" fill="none" xmlns="http://www.w3.org/2000/svg">
<g id="Frame">
<path id="Vector" d="M9 6.33333L7 5L5 6.33333V16.3333C5 17.4379 5.89543 18.3333 7 18.3333H16.3333C17.4379 18.3333 18.3333 17.4379 18.3333 16.3333V14.3333H17V6.33333L15 5L13 6.33333L11 5L9 6.33333ZM15.6667 14.3333H7.66667V16.3333C7.66667 16.7015 7.36819 17 7 17C6.63181 17 6.33333 16.7015 6.33333 16.3333V7.04691L7 6.60247L9 7.9358L11 6.60247L13 7.9358L15 6.60247L15.6667 7.04691V14.3333ZM16.3333 17H8.88619C8.9599 16.7915 9 16.5671 9 16.3333V15.6667H17V16.3333C17 16.7015 16.7015 17 16.3333 17Z" fill="#1D242D"/>
</g>
</svg>
