<svg width="24" height="24" viewBox="0 0 24 24" fill="none" xmlns="http://www.w3.org/2000/svg">
<path d="M10.7586 6.71068V6.31623C10.7586 6.00066 11.2451 6.00066 11.2451 6.31623V6.71068C11.2451 7.02624 10.7586 7.02624 10.7586 6.71068ZM11.4555 8.14384C12.034 8.39368 12.5206 8.15701 12.5469 8.14384C12.8493 8.03865 12.6783 7.57843 12.3759 7.68362C12.3234 7.69679 12.0472 7.86769 11.6396 7.68362C11.3503 7.5653 11.1662 8.01235 11.4555 8.14384ZM14.2167 17.5582C14.2167 18.8205 13.1911 19.8592 11.9157 19.8592C10.6534 19.8592 9.61469 18.8336 9.61469 17.5582C9.61469 16.296 10.6403 15.2572 11.9157 15.2572C13.1911 15.2572 14.2299 16.2828 14.2167 17.5582ZM13.7302 17.5582C13.7302 16.5589 12.915 15.7437 11.9157 15.7437C10.9164 15.7437 10.1012 16.5589 10.1012 17.5582C10.1012 18.5575 10.9164 19.3727 11.9157 19.3727C12.9281 19.3727 13.7433 18.5575 13.7302 17.5582ZM22.4477 21.8052V22.2654C22.4477 22.3969 22.3425 22.5021 22.211 22.5021H15.3869H8.56286H1.73875C1.60726 22.5021 1.50208 22.3969 1.50208 22.2654V21.8052C1.50208 20.8979 2.23839 20.1748 3.13248 20.1748H6.61684V19.2675C5.14422 20.5692 2.79062 19.5173 2.79062 17.545C2.79062 15.5728 5.14422 14.5209 6.61684 15.8226V13.9423C6.61684 13.8108 6.72203 13.7056 6.85351 13.7056H7.95798V10.8656C7.95798 9.74795 8.86525 8.84073 9.98284 8.84073H10.2853C9.79881 8.47257 9.4569 7.92034 9.37801 7.28921H8.91779C8.40498 7.28921 7.98423 6.88163 7.98423 6.36882C7.9974 6.28993 7.82645 5.42213 8.66795 5.19859V4.71207C8.66795 3.14738 9.94337 1.88513 11.4949 1.88513H12.4416C14.0063 1.88513 15.2685 3.16055 15.2685 4.71207V5.19859C16.0969 5.42209 15.9391 6.31623 15.9522 6.36882C15.9522 6.88163 15.5315 7.28921 15.0187 7.28921H14.5584C14.4664 7.92034 14.1377 8.47257 13.6512 8.84073H13.9536C15.0713 8.84073 15.9785 9.74799 15.9785 10.8656V13.7056H17.0961C17.2276 13.7056 17.3328 13.8108 17.3328 13.9423V15.7437C18.858 14.5603 21.0538 15.6517 21.0538 17.5582C21.0538 19.4778 18.8449 20.5429 17.3328 19.3726V20.1879H20.8172C21.7113 20.1879 22.4477 20.9242 22.4477 21.8052ZM18.7398 19.3727C19.7391 19.3727 20.5543 18.5575 20.5543 17.5582C20.5543 15.8094 18.319 15.0731 17.2803 16.48C16.3993 17.6502 17.2408 19.3727 18.7398 19.3727ZM13.2832 9.31407C13.6776 10.2345 13.8486 10.3396 13.7302 10.5369C13.6119 10.7341 13.441 10.6158 12.468 10.6553L12.823 13.6926H14.0984V12.2594C14.0984 11.9438 14.5849 11.9438 14.5849 12.2594V13.6926H15.4922V10.8656C15.4922 10.0241 14.8085 9.3272 13.9538 9.3272L13.2832 9.31407ZM12.4942 9.37984V9.32724C12.5074 9.32724 12.2575 9.32724 12.2444 9.32724C12.2838 9.32724 11.6264 9.32724 11.4818 9.32724V9.37984C11.4818 9.65593 11.7053 9.87948 11.9815 9.87948C12.2575 9.87948 12.4811 9.65593 12.4942 9.37984ZM11.9552 10.4843L11.5738 13.6925H12.3364L11.9552 10.4843ZM13.1516 10.1687L12.915 9.65593C12.8624 9.8663 12.7309 10.0373 12.5599 10.1687H13.1516ZM14.6243 5.89548L14.5849 6.10585V6.80274H15.0188C15.2687 6.80274 15.4659 6.60549 15.4659 6.36882V6.07955C15.4658 5.61934 14.8347 5.47473 14.6243 5.89548ZM9.35176 6.07955C9.35176 5.50102 8.47079 5.50102 8.47079 6.07955V6.36882C8.47079 6.60549 8.66804 6.80274 8.91784 6.80274H9.35176V6.07955ZM9.57526 5.43526L11.3897 4.14671C11.9157 3.77855 11.9814 5.72452 14.1509 5.84288C14.243 5.50102 14.5322 5.26435 14.7952 5.19863V4.71212C14.7952 3.42357 13.7433 2.37169 12.4548 2.37169H11.5081C10.2196 2.37169 9.16768 3.42357 9.16768 4.71212V5.18546C9.27282 5.22488 9.45695 5.3169 9.57526 5.43526ZM11.2714 8.78813C11.5739 8.86702 11.8105 8.82755 12.2181 8.84073C13.2306 8.84073 14.0852 8.02552 14.0852 6.97365V6.32935C13.7302 6.31623 13.3883 6.25046 13.0728 6.1321C13.2437 6.25046 13.1517 6.40824 13.178 6.71063C13.178 7.02619 12.6915 7.02619 12.6915 6.71063V6.31618C12.6915 6.17152 12.8098 6.05321 12.9807 6.07951C11.9289 5.63246 11.5607 4.80409 11.4555 4.6726L9.83823 5.81654V6.07951V6.96043C9.83823 7.84145 10.4299 8.59088 11.2714 8.78813ZM11.0479 9.69535L10.8243 10.1687H11.3897C11.232 10.0504 11.1005 9.8926 11.0479 9.69535ZM8.43137 13.6925H9.33864V12.2593C9.33864 11.9438 9.82515 11.9438 9.82515 12.2593V13.6925H11.0743L11.4424 10.6552H10.43C10.2459 10.6552 10.1275 10.4711 10.2064 10.3134L10.6667 9.3272H9.98293C9.14143 9.3272 8.44454 10.0109 8.44454 10.8656L8.43137 13.6925ZM6.64314 18.5049C7.39262 17.3215 6.51165 15.7437 5.09162 15.7437C4.09234 15.7437 3.27714 16.5589 3.27714 17.5582C3.27714 19.3858 5.69645 20.0695 6.64314 18.5049ZM8.32614 21.8183C8.32614 21.2792 7.94486 20.8059 7.40575 20.7007C7.26114 20.6612 7.52411 20.6744 3.13248 20.6744C2.50136 20.6744 1.98854 21.1872 1.98854 21.8183V22.0287H8.32614V21.8183ZM15.1371 21.8183C15.1371 21.1872 14.6243 20.6744 13.9931 20.6744H9.94337C9.31225 20.6744 8.79943 21.1872 8.79943 21.8183V22.0287H15.137V21.8183H15.1371ZM16.8595 20.1747V18.8467C16.3073 18.071 16.3336 17.0059 16.8595 16.2433V14.179H12.6389C12.6257 14.179 12.6257 14.179 12.6257 14.179H11.3109C11.2977 14.179 11.2977 14.179 11.2977 14.179H7.10336V16.4142C7.49781 17.0979 7.51093 17.992 7.10336 18.6889V20.1879C7.15595 20.1879 7.31373 20.1747 7.49781 20.2141C7.94486 20.3062 8.32618 20.5823 8.56286 20.9636C8.85212 20.5034 9.35176 20.1879 9.94347 20.1879H13.9932C14.5849 20.1879 15.0977 20.5035 15.4001 20.9636C15.926 20.0958 16.8464 20.1747 16.8595 20.1747ZM21.9612 21.8183C21.9612 21.1872 21.4484 20.6744 20.8172 20.6744C18.9896 20.6744 17.9377 20.6744 16.7675 20.6744C16.1364 20.6744 15.6236 21.1872 15.6236 21.8183V22.0287H21.9612V21.8183ZM2.1595 9.3009V6.92105C2.1595 6.5529 2.46193 6.26363 2.81692 6.26363H6.985C7.35315 6.26363 7.64242 6.56602 7.64242 6.92105V9.30095C7.64242 9.6691 7.34003 9.95837 6.985 9.95837H5.56497C5.55184 10.2871 5.67015 10.7079 5.32829 10.7079C5.19681 10.7079 5.23623 10.6684 4.14493 9.95837H2.81692C2.46193 9.95837 2.1595 9.6691 2.1595 9.3009ZM2.64601 9.28777C2.64601 9.37984 2.7249 9.45868 2.81692 9.45868C4.73659 9.53757 3.89509 9.22201 5.09162 9.99779V9.70852C5.09162 9.57704 5.19681 9.47185 5.32829 9.47185H6.985C7.07701 9.47185 7.1559 9.39296 7.1559 9.30095V6.92105C7.1559 6.82899 7.07701 6.75015 6.985 6.75015H2.81692C2.72486 6.75015 2.64601 6.82904 2.64601 6.92105V9.28777ZM3.39545 8.60405C3.86879 8.60405 3.86879 7.89404 3.39545 7.89404C2.92211 7.89404 2.92211 8.60405 3.39545 8.60405ZM4.84178 8.60405C5.31512 8.60405 5.31512 7.89404 4.84178 7.89404C4.36843 7.89404 4.36843 8.60405 4.84178 8.60405ZM6.65631 8.24902C6.65631 8.05177 6.49853 7.89404 6.30128 7.89404C6.10403 7.89404 5.94625 8.05182 5.94625 8.24902C5.94629 8.72237 6.65631 8.72237 6.65631 8.24902Z" fill="#FDFDFD"/>
</svg>
