<svg width="73" height="71" viewBox="0 0 73 71" fill="none" xmlns="http://www.w3.org/2000/svg">
<ellipse cx="36.2978" cy="35.5" rx="36.2978" ry="35.5" fill="#232323"/>
<g clip-path="url(#clip0_11785_2732)">
<path d="M36.3906 16.125C36.0703 16.1875 35.5078 16.3125 35.1406 16.4062C34.5625 16.5625 34.4609 16.6172 34.2969 16.8594C34.1641 17.0547 34.125 17.2031 34.1484 17.375C34.1719 17.5 34.6484 18.4297 35.2031 19.4375L36.2187 21.2656L35.8594 21.4375C35.3984 21.6484 34.9609 22.1016 34.7344 22.6016C34.4609 23.2109 34.4844 24.0391 34.7969 24.6562L35.0391 25.1172L34.7969 25.2578C34.2969 25.5469 33.2891 26.3906 32.7031 27C30.5625 29.25 29.1953 32.3203 29.0703 35.1953L29.0234 36.2188L28.5156 36.3906C27.0703 36.8594 26.1094 37.4766 24.2422 39.1094L22.9141 40.2812L22.6406 40.0547C22.4219 39.875 22.2969 39.8281 21.9844 39.8281H21.5937L18.8359 42.5859L16.0781 45.3438V45.7656V46.1953L20.9453 51.0547L25.8047 55.9219H26.2344H26.6562L29.4141 53.1641L32.1719 50.4062V50.0312C32.1719 49.7812 32.1172 49.5859 32.0156 49.4297L31.8516 49.2109L37.9375 49.1875L44.0234 49.1641L44.6797 48.8359C45.3047 48.5234 45.5859 48.2734 50.4297 43.7344C56.3984 38.1484 56 38.6172 56 37.0547C56 36.1797 55.9844 36.0781 55.7891 35.6797C55.5078 35.125 54.9766 34.6016 54.3984 34.3203C54.0156 34.1328 53.8125 34.0859 53.2187 34.0625C52.2578 34.0156 51.9609 34.125 50.5781 35.0312C49.9609 35.4375 49.4375 35.7656 49.4219 35.7656C49.3984 35.7656 49.3594 35.4062 49.3359 34.9609C49.1641 32.2188 47.7578 29.1406 45.6562 26.9531C45.0781 26.3516 43.5859 25.1406 43.4219 25.1406C43.3828 25.1406 43.4687 24.9297 43.6016 24.6641C43.8125 24.25 43.8437 24.1016 43.8516 23.5859C43.8516 23.1328 43.8047 22.8984 43.6719 22.6016C43.4453 22.1016 43.0078 21.6484 42.5469 21.4375L42.1875 21.2578L43.2031 19.4453C43.7578 18.4453 44.2344 17.5156 44.2578 17.375C44.3125 17.0078 44.0156 16.6172 43.5781 16.4844C42.2422 16.0938 41.9141 16.0547 39.3984 16.0312C37.5547 16.0156 36.8359 16.0391 36.3906 16.125ZM41.2734 17.6875C41.7422 17.75 42.1406 17.8203 42.1562 17.8281C42.1641 17.8438 41.7969 18.5391 41.3359 19.3672L40.5 20.8828H39.2031H37.9062L37.0859 19.4141C36.6406 18.6016 36.2656 17.9141 36.25 17.8828C36.2187 17.7969 37.3594 17.625 38.3047 17.5703C39.4219 17.5078 40.2109 17.5391 41.2734 17.6875ZM41.2344 22.7109C42.1172 22.9688 42.4062 23.3594 42.1328 23.8906C41.9375 24.2656 41.7266 24.3281 41.1016 24.1641C40.7812 24.0781 40.1484 24.0078 39.5078 23.9844C38.6172 23.9531 38.3047 23.9766 37.5781 24.125C36.6172 24.3125 36.4766 24.2891 36.2656 23.8828C35.9922 23.3516 36.3047 22.9609 37.1719 22.7266C38.0391 22.4922 38.0469 22.4922 39.3984 22.5234C40.4062 22.5391 40.7656 22.5781 41.2344 22.7109ZM40.6562 25.7656C43.6953 26.5391 46.5 29.7422 47.4609 33.5312C47.6172 34.1562 47.6641 34.5859 47.6953 35.6094L47.7344 36.8984L45.875 38.1172L44.0078 39.3359L43.6562 39.0234C43.4609 38.8516 43.1094 38.6172 42.875 38.5078C42.4766 38.3203 42.3516 38.3047 41.2187 38.2812L39.9844 38.25V37.8359V37.4219L40.4062 37.1797C41.1641 36.7578 41.5391 36.0703 41.5469 35.1406C41.5469 34.5 41.3672 33.9922 40.9687 33.5234C40.7109 33.2188 39.8906 32.7969 39.5625 32.7969C39.1719 32.7969 38.75 32.6484 38.6172 32.4609C38.2812 31.9844 38.6094 31.3125 39.1797 31.3125C39.4609 31.3125 39.5859 31.3672 40.0937 31.7344C40.2187 31.8203 40.4219 31.875 40.6328 31.875C40.8984 31.8672 41 31.8203 41.1797 31.625C41.6484 31.1016 41.3203 30.3828 40.4062 29.9375L39.9844 29.7344V29.125C39.9844 28.5781 39.9687 28.5 39.7812 28.3125C39.6172 28.1484 39.5 28.1094 39.2031 28.1094C38.9062 28.1094 38.7891 28.1484 38.625 28.3125C38.4375 28.5 38.4219 28.5781 38.4219 29.125V29.7344L38 29.9766C37.2422 30.3984 36.8672 31.0859 36.8594 32.0234C36.8594 32.5312 36.8906 32.6875 37.1016 33.0938C37.2266 33.3594 37.4531 33.6641 37.5859 33.7812C37.9219 34.0625 38.5625 34.3594 38.8516 34.3594C39.2422 34.3594 39.6562 34.5078 39.7891 34.6953C39.9766 34.9688 39.9375 35.3984 39.7031 35.6406C39.3516 35.9844 38.7812 35.8906 38.3437 35.4141C37.7344 34.7422 36.7812 35.0156 36.7812 35.8516C36.7812 36.125 36.8359 36.2266 37.1797 36.5938C37.4062 36.8203 37.7734 37.1094 38 37.2188L38.4219 37.4219V37.8516V38.2812L38.1719 38.2266C38.0312 38.1953 37.5312 37.9141 37.0547 37.6016C35.3125 36.4375 33.6484 35.9219 31.6406 35.9219H30.6641L30.7109 35.1172C30.875 32.2422 32.7031 28.8828 35.0703 27.1016C35.8281 26.5234 36.9375 25.9688 37.7187 25.7656C38.5391 25.5547 39.8281 25.5547 40.6562 25.7656ZM53.7656 35.875C54.375 36.2266 54.625 37.0938 54.3047 37.7031C54.2266 37.8438 51.9531 40.0312 49.2422 42.5625C45.4531 46.1172 44.2187 47.2266 43.8906 47.3906L43.4609 47.6016L36.8594 47.625L30.2578 47.6484L27.1719 44.5547C24.1328 41.5156 24.0937 41.4688 24.2422 41.3281C24.8281 40.7812 26.3672 39.4688 26.8125 39.1328C28.1797 38.0938 29.8281 37.5469 31.5703 37.5547C33.3672 37.5547 34.9062 38.0703 36.4453 39.1875C36.7422 39.4062 37.0937 39.6328 37.2187 39.6875C37.375 39.75 38.1562 39.7969 39.6719 39.8281C41.7422 39.8672 41.9219 39.8828 42.2109 40.0391C42.7578 40.3281 43.0312 40.7734 43.0312 41.3906C43.0312 42.0078 42.7656 42.4531 42.2109 42.75C41.9062 42.9062 41.7969 42.9141 38.7969 42.9375L35.6953 42.9609L35.5 43.1641C35.2109 43.4531 35.2109 44.0156 35.5078 44.3125L35.7187 44.5234L39.0781 44.5L42.4453 44.4766L42.9141 44.25C43.5078 43.9531 44.1094 43.3594 44.3984 42.7656C44.5859 42.3828 44.6328 42.1719 44.6562 41.5859L44.6875 40.875L48.5547 38.3438C50.6875 36.9453 52.4844 35.7812 52.5547 35.75C52.8516 35.625 53.4453 35.6875 53.7656 35.875ZM26.1172 45.9219L30.1797 49.9844L28.2031 51.9531L26.2344 53.9297L22.1562 49.8516L18.0703 45.7656L20.0234 43.8125C21.0937 42.7422 21.9922 41.8594 22.0156 41.8594C22.0391 41.8594 23.8828 43.6875 26.1172 45.9219Z" fill="#FDFDFD"/>
<path d="M32.375 43.1562C32.2109 43.3203 32.1719 43.4375 32.1719 43.7344C32.1719 44.0312 32.2109 44.1484 32.375 44.3125C32.5391 44.4766 32.6562 44.5156 32.9531 44.5156C33.25 44.5156 33.3672 44.4766 33.5312 44.3125C33.8203 44.0156 33.8203 43.4531 33.5312 43.1562C33.3672 42.9922 33.25 42.9531 32.9531 42.9531C32.6562 42.9531 32.5391 42.9922 32.375 43.1562Z" fill="#FDFDFD"/>
</g>
<defs>
<clipPath id="clip0_11785_2732">
<rect width="40" height="40" fill="white" transform="translate(16 16)"/>
</clipPath>
</defs>
</svg>
