<svg width="73" height="71" viewBox="0 0 73 71" fill="none" xmlns="http://www.w3.org/2000/svg">
<ellipse cx="36.2978" cy="35.5" rx="36.2978" ry="35.5" fill="#232323"/>
<path d="M36 34.3333C40.6024 34.3333 44.3334 38.0643 44.3334 42.6666V52.6666H41V42.6666C41 40.0038 38.9185 37.8271 36.2939 37.6751L36 37.6666C33.3372 37.6666 31.1606 39.7481 31.0085 42.3728L31 42.6666V52.6666H27.6667V42.6666C27.6667 38.0643 31.3977 34.3333 36 34.3333ZM25.1667 39.3333C25.6315 39.3333 26.0835 39.3876 26.5169 39.4903C26.2367 40.3233 26.0646 41.2033 26.015 42.1155L26 42.6666L26.0012 42.8093C25.8127 42.7426 25.6137 42.6978 25.4075 42.6781L25.1667 42.6666C23.8672 42.6666 22.7993 43.6581 22.6782 44.9258L22.6667 45.1666V52.6666H19.3334V45.1666C19.3334 41.945 21.945 39.3333 25.1667 39.3333ZM46.8334 39.3333C50.055 39.3333 52.6667 41.945 52.6667 45.1666V52.6666H49.3334V45.1666C49.3334 43.8671 48.3419 42.7993 47.0742 42.6781L46.8334 42.6666C46.5414 42.6666 46.261 42.7166 46.0005 42.8086L46 42.6666C46 41.5571 45.8194 40.49 45.4859 39.4926C45.9165 39.3876 46.3685 39.3333 46.8334 39.3333ZM25.1667 29.3333C27.4679 29.3333 29.3334 31.1988 29.3334 33.5C29.3334 35.8011 27.4679 37.6666 25.1667 37.6666C22.8655 37.6666 21 35.8011 21 33.5C21 31.1988 22.8655 29.3333 25.1667 29.3333ZM46.8334 29.3333C49.1345 29.3333 51 31.1988 51 33.5C51 35.8011 49.1345 37.6666 46.8334 37.6666C44.5322 37.6666 42.6667 35.8011 42.6667 33.5C42.6667 31.1988 44.5322 29.3333 46.8334 29.3333ZM25.1667 32.6666C24.7065 32.6666 24.3334 33.0398 24.3334 33.5C24.3334 33.9601 24.7065 34.3333 25.1667 34.3333C25.6269 34.3333 26 33.9601 26 33.5C26 33.0398 25.6269 32.6666 25.1667 32.6666ZM46.8334 32.6666C46.3732 32.6666 46 33.0398 46 33.5C46 33.9601 46.3732 34.3333 46.8334 34.3333C47.2935 34.3333 47.6667 33.9601 47.6667 33.5C47.6667 33.0398 47.2935 32.6666 46.8334 32.6666ZM36 19.3333C39.6819 19.3333 42.6667 22.3181 42.6667 26C42.6667 29.6819 39.6819 32.6666 36 32.6666C32.3181 32.6666 29.3334 29.6819 29.3334 26C29.3334 22.3181 32.3181 19.3333 36 19.3333ZM36 22.6666C34.159 22.6666 32.6667 24.159 32.6667 26C32.6667 27.8409 34.159 29.3333 36 29.3333C37.841 29.3333 39.3334 27.8409 39.3334 26C39.3334 24.159 37.841 22.6666 36 22.6666Z" fill="#FDFDFD"/>
</svg>
